<svg xmlns="http://www.w3.org/2000/svg" width="300" height="400" viewBox="0 0 300 400" role="img" aria-label="hero 초상 (플레이스홀더)">
  <defs>
    <linearGradient id="bg" x1="0" y1="0" x2="0" y2="1">
      <stop offset="0" stop-color="#334155"/><stop offset="1" stop-color="#0f172a"/>
    </linearGradient>
  </defs>
  <rect width="300" height="400" fill="url(#bg)"/>
  <circle cx="150" cy="150" r="118" fill="#64748b" opacity="0.14"/>
  <rect x="132" y="158" width="36" height="56" rx="16" fill="#e8c9a8"/>
  <ellipse cx="150" cy="128" rx="52" ry="60" fill="#e8c9a8"/>
  <path d="M98 126 C98 66 202 66 202 126 C202 98 180 86 150 86 C120 86 98 98 98 126 Z" fill="#1c1917"/>
  <circle cx="130" cy="134" r="4.5" fill="#1c1917"/><circle cx="170" cy="134" r="4.5" fill="#1c1917"/>
  <path d="M150 202 C88 208 58 252 50 400 L250 400 C242 252 212 208 150 202 Z" fill="#64748b"/>
  <text x="150" y="372" text-anchor="middle" font-family="system-ui, sans-serif" font-size="44" fill="#e2e8f0" opacity="0.5">④</text>
</svg>
